<svg xmlns="http://www.w3.org/2000/svg" xmlns:xlink="http://www.w3.org/1999/xlink" width="40px" height="40px" viewBox="0 0 40 40" version="1.1">
    <title>Group 6</title>
    <g id="Page-1" stroke="none" stroke-width="1" fill="none" fill-rule="evenodd">
        <g id="iPhone-13-Pro" transform="translate(-320.000000, -15.000000)">
            <g id="Group-6" transform="translate(320.000000, 15.000000)">
                <circle id="Oval" fill="#7f1bccb9" cx="20" cy="20" r="20"/>
                <path d="M29.8527731,18.9645628 L29.8527731,18.1148826 C29.8527731,16.5611239 28.7865643,15.2550325 27.3484221,14.8807926 L27.3458272,13.4798438 C27.3458272,12.1126284 26.2331988,11 24.8654068,11 L24.734221,11 L13.125865,14.6011218 C12.8614752,14.6164028 12.6106364,14.6775267 12.3750786,14.7695009 L12.344805,14.7695009 C10.5007077,14.7695009 9,16.2702086 9,18.1148826 L9,26.4196635 C9,28.2640491 10.5004194,29.7650451 12.344805,29.7650451 L26.5079681,29.7650451 C28.3520654,29.7650451 29.8527731,28.2643374 29.8527731,26.4196635 L29.8527731,25.315108 C30.5225414,25.0559079 31,24.4066104 31,23.6460212 L31,20.633073 C30.9997117,19.8730604 30.5225414,19.2237628 29.8527731,18.9645628 Z M29.2697893,23.6457329 C29.2697893,23.6797547 29.2429755,23.7065685 29.2089537,23.7065685 L24.526342,23.7065685 C24.4923202,23.7065685 24.4657947,23.6797547 24.4657947,23.6457329 L24.4657947,20.633073 C24.4657947,20.5999161 24.4928968,20.572814 24.526342,20.572814 L29.2089537,20.572814 C29.2423988,20.572814 29.2697893,20.5999161 29.2697893,20.633073 L29.2697893,23.6457329 Z M24.9723737,12.7377071 C25.3359457,12.7896047 25.6159048,13.1027207 25.6159048,13.4812854 L25.6182114,14.7697893 L18.4220224,14.7697893 L24.9723737,12.7377071 Z M26.5079681,28.0348343 L12.3450933,28.0348343 C11.4533183,28.0348343 10.7302107,27.3114385 10.7302107,26.4193751 L10.7302107,18.1148826 C10.7302107,17.2225309 11.4533183,16.4994234 12.3450933,16.4994234 L26.5079681,16.4994234 C27.4000315,16.4994234 28.1228507,17.2225309 28.1228507,18.1148826 L28.1228507,18.8428916 L24.526342,18.8428916 C23.5391329,18.8428916 22.7358723,19.6458639 22.7358723,20.633073 L22.7358723,23.6457329 C22.7358723,24.6332302 23.5391329,25.4364909 24.526342,25.4364909 L28.1228507,25.4364909 L28.1228507,26.4196635 C28.1228507,27.3114385 27.4000315,28.0348343 26.5079681,28.0348343 Z" id="Shape" fill="#FFFFFF" fill-rule="nonzero"/>
            </g>
        </g>
    </g>
</svg>